<svg version="1" xmlns="http://www.w3.org/2000/svg" width="1333.333" height="1333.333" viewBox="0 0 1000.000000 1000.000000"><path d="M535.5 182c9.1 1.3 13 2 15.5 2.4 1.4.3 4.3.7 6.5 1.1 2.2.3 5.6 1 7.6 1.5 2.1.6 5.7 1.4 8 1.9 16 3.2 47.9 15.3 67.8 25.7 11.4 6 34.5 20 37.4 22.7.6.7 3.9 3.2 7.2 5.6 19 14 39.3 33.9 57.2 56.1 5.8 7.2 24.3 34.2 24.3 35.4 0 .4 1.1 2.4 2.5 4.6 7.3 11.6 19 37.7 25.4 57 6.7 19.8 12.7 46.6 14.6 64.5.3 3.3.8 7.9 1.1 10.2l.6 4.3-118.9.1c-65.3 0-118.3.2-117.8.5.6.2 6.6 1.2 13.5 2.3 10.3 1.6 26.2 4.5 36.6 6.7 82.7 16.9 145.9 44 180.1 77.3.7.7 1.1 2.1.9 3-.5 1.5-4.3 17.6-5.1 21.2-.7 3.4-5.4 17.7-9.5 28.9-4.8 13.2-16.7 38.3-22.8 48.4-2.3 3.7-4.2 7-4.2 7.2 0 .7-12.9 19.4-17.8 25.9-29.5 38.8-68.5 70.9-112.6 92.5-23.2 11.3-56.2 22.3-76.6 25.5-2 .3-4.9 1-6.5 1.5-2.3.7-1.2.8 4 .4 7.2-.5 9.2-.8 20.5-2.5 9-1.4 11.9-1.9 16.5-2.9 2.2-.5 5.6-1.2 7.5-1.5 1.9-.3 5.5-1.1 8-1.6 2.5-.6 5.3-1.2 6.4-1.4 17.6-3.7 68.8-20.7 79.3-26.4 1-.5 7.5-3.7 14.4-6.9 49.9-23.5 97.2-60.4 129.4-100.7 24.7-31 42.9-65.5 52.9-100.3 4.1-13.9 4.1-14 6.6-28.2 2.8-15.9 3.5-23.8 3.5-43.5 0-38.6-5.9-67.7-21.3-104.5-5.5-13-23.2-45.5-26.1-48-.3-.3-2.1-2.8-4-5.5-7.5-11-23.3-29.6-35.1-41.5-57.6-57.8-136.4-97.3-226.5-113.4-1.6-.3-3.9-.8-5.1-1-1.2-.2-4.5-.7-7.4-1.1-2.9-.4-6-.8-6.9-1-.9-.1-4.5-.6-8.1-1-3.6-.3-10.3-1-15-1.6-9.9-1-15.8-1-8.5.1zM453.9 182.4c-.2.2-3.8.7-7.9 1-4.1.3-8.4.8-9.5 1-1.8.3-4.9.8-15.5 2.2-1.9.3-4.2.7-5 .9-.8.2-3.1.7-5 1-7.6 1.2-15.1 2.8-28.5 6.2-7.7 1.9-14.7 3.6-15.5 3.8-2 .4-16 4.9-28 9-31.9 11-65.8 27.7-94.5 46.8-10.5 7-26.1 18.4-30.5 22.3-.8.7-4 3.4-7 6-13.1 11.1-29.9 28.3-42.9 43.9-16.9 20.4-33.6 48.6-44.5 75.1-3.9 9.6-10.7 30.3-12 36.6-.3 1.3-1.2 5.7-2.1 9.8-.9 4.1-1.9 9.1-2.2 11-2.4 17.4-3 26.8-2.7 44.5.2 19.5.4 22.5 1.9 31.6.3 2.4.9 5.7 1.1 7.4 1.1 6.8 1.6 9.4 3.5 17.5 7.6 31.8 21.8 63.6 40.7 91.5C192.3 717.1 262 767.4 348 795.9c20.2 6.7 55.4 15.3 71.5 17.5 2.2.3 5.1.8 6.5 1 4.3.8 9.3 1.5 15.5 2.1 3.3.3 7.6.8 9.5 1 5.1.7 17.8 1.4 16 1-.8-.2-7.6-1.3-15-2.5s-16.2-2.8-19.5-3.7c-3.3-.8-6.7-1.6-7.5-1.8-7.9-1.5-28.1-8.3-42.3-14-12.9-5.3-31.5-14.9-44.9-23.2-10.4-6.4-33.6-23.7-41.3-30.8-13.6-12.4-26.1-25.5-37.2-38.8-3.6-4.3-14.5-19.5-19.5-27.2-16.6-25.7-29.8-54.7-38.3-84.2-2.5-8.3-4.6-16.2-4.9-17.5-.2-1.3-.9-4.4-1.5-7.1-.6-2.6-1.4-6.4-1.7-8.3-.3-2-.8-4.6-1-5.8-.2-1.1-.7-4.1-1-6.6-.3-2.5-.7-5.2-.9-6-1.8-6.9-2.7-55.1-1.3-70 .7-6.8 2.2-18.6 3.3-25 .2-1.4.7-4.1 1-6 3-17.7 10.6-43.7 18.8-63.6 27.1-66.3 74.4-120.4 136.2-156.1 27.6-16 66.2-30.2 94.5-34.9 1.9-.3 14.6-2.3 18-2.8 1.4-.2.4-.4-2.1-.5-2.5 0-4.8.1-5 .3z"/><path d="M499.9 200.1c-.3 1.6-.8 19.9-1.3 44.9-1.3 58.7-2.6 89.2-5.1 116-.2 2.5-.7 7.2-1 10.5-.4 5-1.7 14.9-4 31.5-.2 1.4-.6 4.1-1 6-.3 1.9-.8 4.6-1 6-.3 1.4-.9 5-1.5 8s-1.4 6.6-1.6 8c-3 15.2-11.2 43.8-17.6 60.7l-3.1 8.3 3.1 8.2c6.6 17.7 15.2 47.2 17.7 60.8.3 1.4.7 3.6 1 5 .8 4.2 3.6 20.3 4.1 24 .3 1.9.7 4.8.9 6.5.3 1.6.7 5.5 1 8.5.3 3 .7 6.8 1 8.5.3 2.8.7 6.8 2 26 .8 11 1.5 30.8 2 58 .7 39.2 1.9 70.7 3.1 83 .2 2.2.4 5.9.5 8.3.2 4.4 1 5 1.4 1 1.3-11.8 2.6-37.1 5-93.3.9-22.8 1.5-34.9 2-40 .3-2.8.7-8.8 1-13.5.5-7.9.7-10.4 2-22.8 1.2-11.2 3.1-26.2 3.9-30.8.2-1 .7-4.2 1-6.9.4-2.8 1.3-8.2 2.1-12 .7-3.9 1.6-8.8 2-11 1-7 8.4-36.4 13.1-52.3l4.5-15.2-5.1-14.1c-2.8-7.7-6.6-20-8.5-27.2-5.4-20.6-10.3-47.6-12-65.3-.3-3.2-.7-7.7-1-9.9-.4-3.7-.7-7.6-2-25.5-.8-10.9-1.8-37.7-3-78.5-.6-22.8-1.8-46.5-3-59.5-.2-3-.7-8.7-1.1-12.5-.5-5.9-1.2-9.2-1.5-7.4zM540.5 817.1c-3.9.6-3.9.6 1.3.8 2.8 0 5.2-.3 5.2-.7 0-1-.9-1-6.5-.1z"/></svg>